PathFileType	4	(X/Y/Z)	C:\Users\Basilio\Documents\Thesis Gigler\squatting_fais\c3dfiles\075\SLS_front_pre5\markers_experimental.trc
DataRate	CameraRate	NumFrames	NumMarkers	Units	OrigDataRate	OrigDataStartFrame	OrigNumFrames
200.000000	200.000000	4	61	mm	200.000000	851	1363
Frame#	Time	FHD			LBHD			C7			T10			CLAV			LSHO			LUUPA			LMUPA			LDUPA			LLEP			LMEP			LRAD			LUL			LRFIN			RSHO			RUPA1			RMUPA			RDUPA			RLEP			RMEP			RRAD			RUL			RUFIN			RASI			USACR			LSACR			RSACR			LTHI1			LTHI2			LTHI3			LTHI4			LLFC			LMFC			LTIB1			LTIB2			LTIB3			LTIB4			LLMAL			LMMAL			LHEE			LMT1			LMT2			LMT5			RTHI			RTHI2			RTHI3			RTHI4			RLFC			RMFC			RTIB1			RTIB2			RTIB3			RTIB4			RLMAL			RMMAL			RHEE			RMT1			RMT2			RMT5			LASI			RBHD			
		X1	Y1	Z1	X2	Y2	Z2	X3	Y3	Z3	X4	Y4	Z4	X5	Y5	Z5	X6	Y6	Z6	X7	Y7	Z7	X8	Y8	Z8	X9	Y9	Z9	X10	Y10	Z10	X11	Y11	Z11	X12	Y12	Z12	X13	Y13	Z13	X14	Y14	Z14	X15	Y15	Z15	X16	Y16	Z16	X17	Y17	Z17	X18	Y18	Z18	X19	Y19	Z19	X20	Y20	Z20	X21	Y21	Z21	X22	Y22	Z22	X23	Y23	Z23	X24	Y24	Z24	X25	Y25	Z25	X26	Y26	Z26	X27	Y27	Z27	X28	Y28	Z28	X29	Y29	Z29	X30	Y30	Z30	X31	Y31	Z31	X32	Y32	Z32	X33	Y33	Z33	X34	Y34	Z34	X35	Y35	Z35	X36	Y36	Z36	X37	Y37	Z37	X38	Y38	Z38	X39	Y39	Z39	X40	Y40	Z40	X41	Y41	Z41	X42	Y42	Z42	X43	Y43	Z43	X44	Y44	Z44	X45	Y45	Z45	X46	Y46	Z46	X47	Y47	Z47	X48	Y48	Z48	X49	Y49	Z49	X50	Y50	Z50	X51	Y51	Z51	X52	Y52	Z52	X53	Y53	Z53	X54	Y54	Z54	X55	Y55	Z55	X56	Y56	Z56	X57	Y57	Z57	X58	Y58	Z58	X59	Y59	Z59	X60	Y60	Z60	X61	Y61	Z61	

852	4.255	-295.7625427246094	1723.957641601563	-762.6397094726564	-436.2531738281251	1600.701782226563	-833.2476806640627	-461.2790832519532	1490.507446289063	-779.7319335937502	-522.0790405273439	1177.521850585938	-781.0767822265627	-323.1730957031251	1425.334228515625	-774.4101562500002	-348.7600708007813	1482.040893554688	-904.139343261719	-188.6273651123047	1441.997436523438	-993.3392333984377	-166.8151397705078	1462.1708984375	-954.0324707031252	-119.1816711425782	1444.259033203125	-987.0104980468752	-37.98057174682618	1444.337036132813	-971.3382568359377	-45.70066452026368	1369.262939453125	-932.3977661132815	nan	nan	nan	194.6785888671876	1494.911254882813	-868.1899414062502	194.8805694580079	1516.34521484375	-763.5234985351564	-361.9825134277344	1465.277465820313	-641.3445434570314	-216.2354736328126	1425.217041015625	-534.9899902343751	-187.4673309326172	1444.916625976563	-569.5648193359376	-145.7855377197266	1425.38330078125	-529.2078857421876	-76.01612854003908	1430.350463867188	-536.4703369140626	-59.00607681274415	1358.373291015625	-558.8906860351564	131.2182922363282	1492.475952148438	-709.5834960937501	151.3059539794922	1503.463134765625	-636.2333374023439	203.0816650390626	1538.334350585938	-736.0205688476564	-386.8374633789064	984.7114257812502	-665.7713623046876	-534.6083374023439	1063.763549804688	-792.8757934570315	-540.9324340820314	1035.595825195313	-823.8022460937502	-541.3478393554689	1029.400756835938	-767.4658813476564	-289.1112060546876	851.5588989257815	-1014.375366210938	-209.2237396240235	822.9418945312502	-1013.538757324219	-184.5910797119141	855.5181274414065	-985.599548339844	-187.9929504394532	766.5780639648439	-1013.555480957031	-123.1521453857422	679.9887695312501	-1008.736328125	-89.50595092773439	682.7490844726564	-882.9351806640627	-12.25170803070069	603.2093505859376	-976.1278076171877	-43.52944564819337	542.9859008789064	-1030.1953125	-6.494730472564699	554.7090454101564	-1007.259643554688	26.93927001953126	481.2854309082032	-979.964050292969	27.85640716552735	320.6098022460938	-1007.914245605469	42.93790435791016	344.9363708496094	-923.4700317382815	-19.58748435974121	278.6983032226563	-969.1856689453127	180.2230377197266	308.1880187988282	-911.1762695312502	192.7745208740235	306.2257080078126	-958.261169433594	166.4591369628907	270.9005737304688	-1009.99609375	-431.408172607422	772.0413208007815	-629.2567138671876	-383.9093933105469	726.4381103515626	-629.9634399414064	-352.7875671386719	737.9400634765626	-635.3987426757814	-395.5903930664064	643.2099609375001	-647.6793212890626	-381.8034667968751	494.5262756347657	-688.3853759765626	-331.9798583984376	503.986053466797	-807.023864746094	-313.6392517089844	358.0649719238282	-760.4616699218751	-367.4268493652344	273.6796569824219	-717.3569946289064	-327.4595642089844	273.2250061035157	-745.1195678710939	-333.6747131347657	232.6844787597657	-787.765319824219	-398.069793701172	107.5281448364258	-770.166198730469	-365.7986755371094	139.0059356689453	-846.2657470703127	-447.2986145019532	91.79164123535158	-834.4702148437502	-242.155746459961	57.73720550537111	-822.5819091796877	-247.3418731689454	55.37148284912111	-780.128356933594	-289.7097167968751	33.5540885925293	-733.4046020507814	-373.4829711914063	1020.65966796875	-914.0054931640627	-399.5067138671876	1636.80712890625	-678.8997192382814	
853	4.26	-295.8367919921876	1724.875854492188	-762.9014282226564	-436.2585754394532	1601.495239257813	-833.4189453125002	-461.071014404297	1491.34912109375	-779.6414794921877	-521.6547851562501	1178.135375976563	-780.9593505859377	-322.8738403320313	1426.14306640625	-774.3526611328127	-348.6929016113282	1482.839965820313	-904.1920166015627	-188.5287322998047	1442.743530273438	-993.408386230469	-166.0851745605469	1462.649291992188	-953.806091308594	-118.9423980712891	1445.05517578125	-987.0720825195315	-37.88297271728516	1445.048095703125	-971.4127197265627	-45.57514953613282	1369.892211914063	-932.459167480469	nan	nan	nan	194.761215209961	1495.501953125	-868.507263183594	194.8613433837891	1516.925659179688	-763.5671997070314	-361.8440856933594	1466.051147460938	-641.4894409179689	-216.0186614990235	1425.72216796875	-535.0687866210939	-187.208724975586	1445.480346679688	-569.7617187500001	-145.5342254638672	1425.954833984375	-529.3345947265626	-75.71612548828126	1430.817260742188	-536.7770996093751	-58.86529922485353	1358.771118164063	-559.1312255859376	131.3696594238282	1493.023071289063	-709.6779174804689	151.5998687744141	1503.74267578125	-636.4822387695314	203.3201599121094	1538.728881835938	-736.1629028320314	-386.2806396484376	985.3322753906252	-665.7749023437501	-533.9760131835939	1064.575073242188	-792.7829589843752	-540.4136352539064	1036.37548828125	-823.7063598632815	-540.7188110351564	1030.10888671875	-767.3546142578126	-288.5977478027344	852.2836914062502	-1014.539611816406	-209.1497192382813	823.3389282226565	-1013.108764648438	-184.047607421875	856.3257446289065	-985.6248779296877	-187.5996856689453	767.3474731445314	-1013.820495605469	-123.1964111328125	680.9254150390626	-1009.119079589844	-89.16503906250001	683.4680175781251	-883.379577636719	-11.62341594696045	603.7811279296876	-976.1030273437502	-43.34221649169923	543.6900634765626	-1030.369995117188	-6.102734565734865	555.5310668945314	-1007.559387207031	27.09025955200196	482.0134277343751	-980.406677246094	28.63586616516114	321.1490173339844	-1008.223205566406	43.14237594604493	345.5861816406251	-923.8806762695315	-19.47644996643067	279.3596496582032	-969.583435058594	180.460433959961	308.8571166992188	-911.6943969726565	192.8659210205079	306.7227783203126	-958.8918457031252	166.5575714111328	271.3876953125001	-1010.348937988281	-431.4812927246095	772.669372558594	-629.4528808593751	-384.2208557128907	726.9127197265626	-630.2077026367189	-353.1547851562501	738.1318969726564	-635.8862915039064	-396.5135192871095	643.7145996093751	-648.1549072265626	-383.7173767089844	494.8442687988282	-689.2021484375001	-333.7874450683594	504.2046203613282	-807.886413574219	-315.1694641113282	358.3794860839844	-761.0538940429689	-368.4898376464844	273.8349304199219	-717.7960815429689	-328.3178100585938	273.6193542480469	-745.4501342773439	-334.0740051269532	232.9751434326172	-787.9832763671877	-398.0839843750001	107.5800170898438	-770.211853027344	-365.3486022949219	138.7929077148438	-846.1670532226565	-447.2914123535157	91.74402618408205	-834.4901123046877	-242.1760711669922	57.73244094848634	-822.6184692382815	-247.354232788086	55.36604309082033	-780.1396484375002	-289.7168884277344	33.57067489624024	-733.3812866210939	-373.1399841308594	1021.617065429688	-913.9094238281252	-399.4096984863282	1637.737182617188	-678.9172363281251	
854	4.265	-296.4018249511719	1725.903442382813	-763.5806884765626	-436.066864013672	1602.47021484375	-833.392028808594	-460.6957092285157	1492.063354492188	-779.6975708007815	-521.1597900390626	1178.801513671875	-780.8299560546877	-322.7170104980469	1426.739379882813	-774.4434204101565	-348.5151672363282	1483.481079101563	-904.2734375000002	-188.4813232421875	1443.34423828125	-993.5645751953127	-165.8288879394532	1463.318237304688	-953.8679809570315	-118.9714889526367	1445.6552734375	-987.187438964844	-37.65502166748048	1445.623901367188	-971.533142089844	-45.41439056396485	1370.514404296875	-932.623474121094	nan	nan	nan	194.8725280761719	1495.952270507813	-868.675231933594	195.4012298583985	1517.328857421875	-763.9645385742189	-361.6543273925782	1466.795532226563	-641.5260009765626	-215.6558380126954	1426.328979492188	-535.2318725585939	-186.9586944580078	1445.978637695313	-569.8674316406251	-145.252426147461	1426.4345703125	-529.4777832031251	-75.42454528808595	1431.2685546875	-536.9568481445314	-58.57925033569337	1359.217895507813	-559.4048461914064	131.3766326904297	1493.494750976563	-710.0541381835939	151.88134765625	1504.100463867188	-636.6738281250001	203.5403747558594	1539.068115234375	-736.3168945312501	-385.5560302734376	985.9753417968752	-665.8852539062501	-533.5481567382814	1065.042358398438	-792.6211547851565	-539.9610595703126	1037.014404296875	-823.543151855469	-540.2100219726564	1030.658325195313	-767.2861328125001	-288.1824645996094	853.164733886719	-1014.695861816406	-208.6601715087891	824.1323852539065	-1013.346740722656	-183.6003570556641	857.031677246094	-985.8333129882815	-187.2039184570313	768.1326293945315	-1013.871032714844	-122.7111206054688	681.7241821289064	-1009.437805175781	-88.77371215820314	684.2783203125001	-883.6500244140627	-11.43614673614502	604.5594482421876	-976.6224365234377	-43.08755493164063	544.2896728515626	-1030.616577148438	-5.904858112335206	556.2539062500001	-1007.847595214844	27.28128623962403	482.6195068359376	-980.6797485351565	28.84407615661622	321.8511962890626	-1008.608825683594	43.37126159667969	346.1752014160157	-924.3149414062502	-19.67377471923828	280.0868225097657	-969.981628417969	180.8141632080078	309.5281066894532	-912.170104980469	193.0555267333985	307.3924255371094	-959.4739379882815	166.6114501953125	272.1208801269532	-1011.050476074219	-431.4823303222657	773.266052246094	-629.5690917968751	-384.5324707031251	727.1784667968751	-630.6419677734376	-353.4014282226563	738.2681884765626	-636.2246704101564	-397.3808593750001	644.0783691406251	-648.5247192382814	-385.3081054687501	495.1812133789064	-689.7568359375001	-335.6833496093751	504.5434875488282	-808.7513427734377	-315.9700317382813	358.7987976074219	-761.0848388671876	-369.1857604980469	274.2813415527344	-718.1140136718751	-329.2030639648438	274.0418701171876	-745.9801025390626	-334.4019775390626	233.1908874511719	-787.9243164062502	-398.136444091797	107.6610412597657	-770.290222167969	-366.1478881835938	138.98779296875	-846.4302368164065	-447.3409729003907	91.70987701416017	-834.4941406250002	-242.2288818359376	57.77727508544923	-822.6729736328127	-247.9945373535157	55.02947998046876	-780.9083251953127	-289.7384338378907	33.57958221435548	-733.4562377929689	-372.7412109375001	1022.582885742188	-913.9746093750002	-399.2732238769532	1638.453247070313	-679.1663208007814	
855	4.27	-296.2735290527344	1726.636596679688	-763.7636718750001	-436.0875549316407	1602.744995117188	-833.4849243164065	-460.5730590820314	1492.56201171875	-779.6311035156252	-520.7589111328126	1179.280639648438	-780.7061767578127	-322.5523071289063	1427.34765625	-774.4544677734377	-348.2109985351563	1483.886840820313	-904.125915527344	-188.3233184814453	1443.880249023438	-993.5821533203127	-165.778305053711	1463.934936523438	-953.9727172851565	-118.9231796264649	1446.271118164063	-987.3984985351565	-37.72474670410157	1446.257202148438	-971.8011474609377	-45.3645362854004	1371.161010742188	-932.8601684570315	nan	nan	nan	194.5997467041016	1496.608276367188	-869.0439453125002	195.5509948730469	1517.732666015625	-764.0621948242189	-361.2940979003907	1467.435791015625	-641.5143432617189	-215.4092254638672	1426.806884765625	-535.3955078125001	-186.5757446289063	1446.45263671875	-569.9685058593751	-144.9697570800782	1426.914184570313	-529.6516113281251	-75.04654693603517	1431.719116210938	-537.1930541992189	-58.34862518310548	1359.676391601563	-559.6665039062501	131.6911773681641	1493.909057617188	-710.1788330078126	152.2368774414063	1504.444946289063	-636.8778076171876	203.8497467041016	1539.455444335938	-736.5804443359376	-384.8604125976564	986.5607910156252	-665.8951416015626	-532.9451904296876	1065.598022460938	-792.4287109375002	-539.5313720703126	1037.615112304688	-823.4003906250002	-539.5976562500001	1031.2919921875	-767.1221313476564	-287.6976623535157	853.8016357421877	-1014.852783203125	-207.8903198242188	825.1960449218752	-1014.217712402344	-183.2104187011719	857.662536621094	-986.0329589843752	-186.7477569580078	769.019958496094	-1014.23583984375	-122.4462814331055	682.4154663085939	-1009.696228027344	-88.2854461669922	685.0733642578126	-883.9152832031252	-11.19637489318848	605.1487426757814	-976.9508056640627	-42.62456512451173	544.9134521484376	-1031.052124023438	-5.649788856506349	556.9012451171876	-1008.188781738281	27.73047065734864	483.2416076660157	-980.9771728515627	29.02539443969727	322.4866333007813	-1009.037536621094	43.64875793457032	346.7720336914063	-924.7137451171877	-19.18108749389649	280.5539550781251	-970.2615966796877	181.0072326660157	310.1137084960938	-912.710144042969	193.4997558593751	308.2210083007813	-959.9949951171877	166.7784118652344	272.8614501953126	-1011.747863769531	-431.4670715332032	773.7825317382815	-629.6474609375001	-384.7067871093751	727.5051269531251	-631.0010375976564	-353.6955566406251	738.4752807617189	-636.6150512695314	-398.1372375488282	644.5387573242189	-648.9584960937501	-387.0419006347657	495.5170288085939	-690.4966430664064	-337.5018615722657	504.6929931640626	-809.5683593750002	-317.7453613281251	359.3648681640626	-762.1257934570314	-370.0953979492188	274.5196228027344	-718.4505004882814	-330.5915527343751	274.5813598632813	-746.5150756835939	-335.1162109375001	233.4716339111329	-788.087829589844	-398.2371520996095	107.6899871826172	-770.340270996094	-366.2964782714844	138.9754943847657	-846.5367431640627	-447.320526123047	91.64820861816408	-834.5908813476565	-242.2370147705079	57.743953704834	-822.7053222656252	-248.024642944336	55.04834747314455	-780.9568481445315	-289.7274475097657	33.61078262329102	-733.4710693359376	-372.1130981445313	1023.05712890625	-914.055847167969	-399.0989685058595	1639.192138671875	-679.2258911132814	
